<?xml version="1.0" standalone="no"?>
<!DOCTYPE svg PUBLIC "-//W3C//DTD SVG 20010904//EN"
 "http://www.w3.org/TR/2001/REC-SVG-20010904/DTD/svg10.dtd">
<svg version="1.0" xmlns="http://www.w3.org/2000/svg"
 width="1024.000000pt" height="1024.000000pt" viewBox="0 0 1024.000000 1024.000000"
 preserveAspectRatio="xMidYMid meet">

<g transform="translate(0.000000,1024.000000) scale(0.100000,-0.100000)"
fill="#000000" stroke="none">
<path d="M4170 7052 c0 -229 -1 -238 -21 -250 -11 -7 -151 -87 -310 -178
l-289 -166 0 -168 c0 -122 3 -170 13 -177 6 -6 146 -86 310 -178 l298 -168 -3
-254 -3 -253 138 0 137 0 0 334 0 335 -207 117 c-115 64 -257 145 -316 180
l-109 62 28 19 c15 10 156 93 313 184 l286 165 3 317 2 317 -135 0 -135 0 0
-238z"/>
<path d="M5337 7173 c-216 -557 -511 -1324 -650 -1690 l-85 -222 132 -3 c72
-2 140 -2 151 0 16 2 42 60 141 320 152 395 579 1496 628 1616 20 50 36 91 36
93 0 2 -69 3 -154 3 l-154 0 -45 -117z"/>
<path d="M5810 6971 l0 -319 293 -167 c328 -187 335 -191 321 -204 -5 -5 -145
-87 -311 -181 l-303 -172 0 -334 0 -334 135 0 135 0 2 257 3 256 302 171 303
171 -3 175 -2 175 -302 170 -302 170 -1 243 0 242 -135 0 -135 0 0 -319z"/>
<path d="M4267 4793 c-4 -3 -7 -120 -7 -260 l0 -253 45 0 45 0 0 105 0 105
115 0 115 0 0 40 0 40 -115 0 -115 0 0 75 0 75 140 0 140 0 0 34 c0 22 -6 36
-16 40 -21 8 -339 8 -347 -1z"/>
<path d="M4690 4541 l0 -261 40 0 39 0 3 97 c3 97 3 98 28 97 76 -2 75 -1 135
-90 32 -47 64 -92 72 -100 16 -15 93 -20 93 -5 0 5 -30 51 -67 102 -61 85 -65
94 -48 103 48 28 85 71 96 108 13 50 4 109 -23 143 -39 49 -72 59 -225 63
l-143 4 0 -261z m273 168 c31 -17 37 -28 37 -76 0 -65 -30 -83 -141 -83 l-89
0 0 78 c0 43 3 82 7 85 11 12 163 8 186 -4z"/>
<path d="M5170 4539 l0 -259 185 0 185 0 0 35 0 34 -142 3 -143 3 -3 73 -3 72
126 0 125 0 0 35 0 34 -122 3 -123 3 0 70 0 70 143 3 143 3 -3 37 -3 37 -182
1 -183 2 0 -259z"/>
<path d="M5610 4540 l0 -260 190 0 190 0 0 35 0 35 -145 0 -145 0 0 75 0 75
120 0 120 0 0 35 0 34 -122 3 -121 3 -1 70 -1 70 145 5 145 5 0 35 0 35 -187
3 -188 2 0 -260z"/>
<path d="M3501 4129 c-72 -14 -138 -65 -174 -134 -29 -57 -35 -180 -12 -241
36 -94 110 -150 213 -160 193 -21 332 137 292 330 -30 147 -168 236 -319 205z
m160 -102 c119 -78 97 -297 -34 -346 -40 -16 -113 -14 -146 4 -41 21 -79 69
-92 118 -24 86 24 202 95 233 51 22 137 18 177 -9z"/>
<path d="M4069 4127 c-126 -35 -199 -152 -187 -301 6 -73 34 -131 82 -173 45
-41 97 -57 176 -57 77 0 123 14 180 55 l41 30 -3 97 -3 97 -100 0 -100 0 -3
-32 -3 -33 60 0 61 0 0 -50 c0 -59 -19 -76 -92 -86 -129 -18 -211 53 -212 181
0 172 174 263 297 156 l32 -29 29 25 29 24 -29 31 c-61 63 -165 90 -255 65z"/>
<path d="M7637 4126 c-74 -20 -127 -63 -161 -128 -24 -49 -29 -69 -29 -136 0
-120 42 -194 138 -245 58 -31 180 -30 252 2 82 36 89 49 85 164 l-3 97 -100 0
-99 0 0 -35 0 -34 58 -3 57 -3 0 -50 c0 -47 -2 -51 -35 -67 -42 -22 -131 -23
-168 -4 -36 19 -78 65 -91 99 -18 47 -13 126 10 175 51 104 193 132 277 54 27
-25 32 -27 49 -14 10 7 25 17 33 22 12 7 10 14 -15 40 -62 66 -165 92 -258 66z"/>
<path d="M2370 3866 l0 -266 40 0 40 0 0 95 0 95 93 0 c105 0 164 21 201 73
30 41 30 154 0 193 -47 64 -62 69 -225 72 l-149 4 0 -266z m291 155 c31 -31
37 -67 17 -104 -21 -40 -40 -46 -135 -47 l-93 0 0 90 0 90 91 0 c87 0 92 -1
120 -29z"/>
<path d="M2842 3868 l3 -263 40 0 40 0 3 98 3 98 51 -3 52 -3 70 -97 70 -98
43 0 c24 0 43 2 43 5 0 2 -31 48 -69 102 l-70 98 27 12 c15 6 40 25 57 42 24
26 30 41 33 94 3 52 0 67 -20 96 -48 70 -63 76 -229 79 l-149 3 2 -263z m293
157 c33 -32 33 -84 1 -122 -23 -26 -29 -28 -115 -30 l-91 -2 0 89 0 90 90 0
c83 0 93 -2 115 -25z"/>
<path d="M4445 4117 c-3 -7 -4 -125 -3 -262 l3 -250 43 -3 42 -3 0 101 0 101
52 -3 52 -3 70 -97 70 -98 44 0 c54 0 54 -1 -29 116 -34 48 -58 89 -53 91 66
22 108 83 108 158 0 67 -27 114 -84 143 -39 19 -59 22 -177 22 -99 0 -135 -3
-138 -13z m289 -88 c21 -16 26 -29 26 -63 0 -75 -44 -100 -165 -94 l-60 3 -3
88 -3 87 89 0 c75 0 93 -3 116 -21z"/>
<path d="M5090 4109 c-16 -30 -200 -490 -200 -500 0 -5 20 -9 44 -9 l43 0 22
59 21 59 98 7 c53 3 108 2 121 -2 16 -6 31 -27 45 -64 22 -54 22 -54 70 -57
26 -2 46 0 45 5 -2 4 -37 91 -77 193 -41 102 -87 218 -104 258 l-30 72 -44 0
c-34 0 -46 -5 -54 -21z m99 -197 c23 -56 41 -105 41 -107 0 -3 -40 -5 -90 -5
-49 0 -90 1 -90 3 0 6 72 182 82 200 5 10 11 17 13 15 2 -1 22 -49 44 -106z"/>
<path d="M5460 3865 l0 -265 40 0 40 0 0 158 c0 86 4 163 8 169 5 8 33 -40 78
-131 l69 -145 36 0 35 -1 68 145 c38 80 72 145 76 145 5 0 7 -75 7 -167 l-2
-168 43 -3 42 -3 0 265 0 266 -48 0 -49 0 -84 -181 -83 -182 -90 182 -89 181
-49 0 -48 0 0 -265z"/>
<path d="M6100 3864 l0 -265 43 3 42 3 5 168 5 168 73 -146 c72 -146 73 -146
105 -143 31 3 35 9 101 146 39 78 73 142 78 142 4 0 8 -76 8 -170 l0 -170 40
0 40 0 0 265 0 265 -48 0 -49 0 -84 -180 -84 -181 -89 181 -90 180 -48 0 -48
0 0 -266z"/>
<path d="M6742 3868 l3 -263 43 -3 42 -3 0 265 0 266 -45 0 -45 0 2 -262z"/>
<path d="M6930 3865 l0 -265 40 0 c22 0 41 1 42 3 1 1 4 82 7 181 l6 178 135
-181 c133 -179 134 -181 172 -181 l38 0 0 266 0 265 -42 -3 -43 -3 -5 -180 -5
-180 -100 135 c-56 74 -116 156 -135 183 -30 42 -37 47 -72 47 l-38 0 0 -265z"/>
<path d="M3859 3449 c-89 -14 -147 -56 -190 -139 -20 -37 -24 -60 -24 -130 0
-93 17 -139 71 -194 92 -93 279 -92 367 1 l28 30 -27 22 c-33 26 -36 26 -60 0
-70 -79 -219 -57 -271 41 -38 72 -27 186 25 243 29 33 72 48 130 48 46 0 63
-5 99 -30 45 -32 63 -32 92 2 9 12 4 21 -26 47 -61 54 -129 73 -214 59z"/>
<path d="M4292 3429 c-169 -84 -193 -359 -41 -469 39 -28 113 -50 168 -50 52
0 132 31 171 66 50 45 78 105 86 180 13 119 -42 224 -140 270 -69 32 -182 33
-244 3z m170 -59 c48 -14 97 -55 114 -97 22 -51 18 -141 -8 -193 -41 -80 -144
-112 -234 -71 -22 10 -50 30 -62 45 -28 37 -43 110 -32 166 5 25 9 48 10 52 1
18 59 73 95 89 46 21 66 23 117 9z"/>
<path d="M4750 3263 c1 -242 14 -282 105 -324 56 -26 173 -26 224 1 50 25 88
71 98 118 4 20 8 116 8 212 l0 175 -40 0 -40 0 -5 -192 -5 -193 -33 -32 c-29
-30 -38 -33 -92 -33 -70 0 -108 23 -127 76 -7 21 -12 100 -12 207 l-1 172 -40
0 -40 0 0 -187z"/>
<path d="M5280 3191 l0 -261 45 0 45 0 0 95 0 95 53 0 54 0 64 -95 63 -95 49
0 c56 0 57 -8 -25 107 -56 78 -64 103 -34 103 6 0 27 16 46 35 30 31 35 43 38
99 5 76 -12 114 -65 147 -33 21 -52 23 -185 27 l-148 4 0 -261z m301 150 c27
-33 25 -86 -6 -116 -22 -23 -32 -25 -115 -25 l-90 0 0 86 0 86 96 -4 c86 -3
98 -5 115 -27z"/>
<path d="M5864 3439 c-41 -12 -91 -69 -99 -113 -9 -46 10 -100 45 -129 16 -14
59 -32 97 -42 121 -30 152 -44 159 -72 9 -33 -10 -71 -42 -83 -59 -23 -152 -4
-201 41 l-21 21 -31 -23 -31 -23 27 -29 c84 -87 257 -99 341 -23 30 28 36 40
40 88 8 100 -34 139 -185 173 -79 18 -123 45 -123 76 0 29 42 67 84 75 44 8
119 -18 140 -48 14 -20 14 -20 45 3 17 12 31 26 31 29 0 14 -57 60 -92 74 -41
17 -134 20 -184 5z"/>
<path d="M6222 3188 l3 -263 188 -3 187 -2 0 40 0 40 -145 0 -145 0 0 75 0 75
120 0 120 0 0 35 0 35 -120 0 -120 0 0 75 0 75 146 0 145 0 -3 38 -3 37 -188
3 -187 2 2 -262z"/>
</g>
</svg>
