<?xml version="1.0" standalone="no"?>
<!DOCTYPE svg PUBLIC "-//W3C//DTD SVG 20010904//EN"
 "http://www.w3.org/TR/2001/REC-SVG-20010904/DTD/svg10.dtd">
<svg version="1.0" xmlns="http://www.w3.org/2000/svg"
 width="1024.000000pt" height="770.000000pt" viewBox="0 0 1024.000000 770.000000"
 preserveAspectRatio="xMidYMid meet">

<g transform="translate(0.000000,1024.000000) scale(0.100000,-0.100000)"
fill="#000000" stroke="none">
<path d="M4170 7052 c0 -229 -1 -238 -21 -250 -11 -7 -151 -87 -310 -178
l-289 -166 0 -168 c0 -122 3 -170 13 -177 6 -6 146 -86 310 -178 l298 -168 -3
-254 -3 -253 138 0 137 0 0 334 0 335 -207 117 c-115 64 -257 145 -316 180
l-109 62 28 19 c15 10 156 93 313 184 l286 165 3 317 2 317 -135 0 -135 0 0
-238z"/>
<path d="M5337 7173 c-216 -557 -511 -1324 -650 -1690 l-85 -222 132 -3 c72
-2 140 -2 151 0 16 2 42 60 141 320 152 395 579 1496 628 1616 20 50 36 91 36
93 0 2 -69 3 -154 3 l-154 0 -45 -117z"/>
<path d="M5810 6971 l0 -319 293 -167 c328 -187 335 -191 321 -204 -5 -5 -145
-87 -311 -181 l-303 -172 0 -334 0 -334 135 0 135 0 2 257 3 256 302 171 303
171 -3 175 -2 175 -302 170 -302 170 -1 243 0 242 -135 0 -135 0 0 -319z"/>


</g>
</svg>
